ffmpeg started on 2025-05-29 at 16:08:39
Report written to "D:\Convert\FFMetrics\reports\ssim_report-6.txt"
Log level: 32
Command line:
ffmpeg -hide_banner -nostdin -i "G:\\\xc0\xed\xe8\xec\xe5\\\xce\xed\xe3\xee\xe8\xed\xe3\xe8\\!_36_\xce\xf1\xe5\xed\xfc_2024\\JamClub\\\xd0\xe0\xed\xec\xe0 1_2\\[JamClub] Ranma 1_2 - 11 [1080p]_HEVC.mkv" -i "G:\\\xc0\xed\xe8\xec\xe5\\\xce\xed\xe3\xee\xe8\xed\xe3\xe8\\!_36_\xce\xf1\xe5\xed\xfc_2024\\JamClub\\\xd0\xe0\xed\xec\xe0 1_2\\[JamClub] Ranma 1_2 - 11 [1080p].mp4" -lavfi "[0:v]settb=AVTB,setpts=PTS-STARTPTS,format=pix_fmts=yuv420p10,fps=24000/1001,scale=1920:1080:flags=bicubic[main];[1:v]settb=AVTB,setpts=PTS-STARTPTS,format=pix_fmts=yuv420p,fps=24000/1001,scale=1920:1080:flags=bicubic[ref];[main][ref]ssim=eof_action=endall:stats_file='D\\:/Convert/FFMetrics/logs/ssim_logfile-6.txt'" -f null -
Input #0, matroska,webm, from 'G:\Аниме\Онгоинги\!_36_Осень_2024\JamClub\Ранма 1_2\[JamClub] Ranma 1_2 - 11 [1080p]_HEVC.mkv':
  Metadata:
    COMPATIBLE_BRANDS: isomiso2avc1mp41
    MAJOR_BRAND     : isom
    MINOR_VERSION   : 512
    ENCODER         : Lavf61.7.100
  Duration: 00:24:48.41, start: -0.001000, bitrate: 1766 kb/s
  Stream #0:0: Video: hevc (Main 10), yuv420p10le(tv, bt709, progressive), 1920x1080 [SAR 1:1 DAR 16:9], 23.98 fps, 23.98 tbr, 1k tbn (default)
      Metadata:
        HANDLER_NAME    : VideoHandler
        VENDOR_ID       : [0][0][0][0]
        ENCODER         : Lavc61.19.100 libx265
        BPS             : 1579983
        DURATION        : 00:24:48.319708333
        NUMBER_OF_FRAMES: 35684
        NUMBER_OF_BYTES : 293939997
        _STATISTICS_WRITING_APP: mkvpropedit v66.0.0 ('Josie') 64-bit
        _STATISTICS_WRITING_DATE_UTC: 2025-05-29 08:55:12
        _STATISTICS_TAGS: BPS DURATION NUMBER_OF_FRAMES NUMBER_OF_BYTES
  Stream #0:1(eng): Audio: aac (LC), 48000 Hz, stereo, fltp (default)
      Metadata:
        HANDLER_NAME    : SoundHandler
        VENDOR_ID       : [0][0][0][0]
        ENCODER         : Lavc61.19.100 aac
        BPS             : 182087
        DURATION        : 00:24:48.365000000
        NUMBER_OF_FRAMES: 69768
        NUMBER_OF_BYTES : 33876538
        _STATISTICS_WRITING_APP: mkvpropedit v66.0.0 ('Josie') 64-bit
        _STATISTICS_WRITING_DATE_UTC: 2025-05-29 08:55:12
        _STATISTICS_TAGS: BPS DURATION NUMBER_OF_FRAMES NUMBER_OF_BYTES
Input #1, mov,mp4,m4a,3gp,3g2,mj2, from 'G:\Аниме\Онгоинги\!_36_Осень_2024\JamClub\Ранма 1_2\[JamClub] Ranma 1_2 - 11 [1080p].mp4':
  Metadata:
    major_brand     : isom
    minor_version   : 512
    compatible_brands: isomiso2avc1mp41
    encoder         : Lavf60.16.100
  Duration: 00:24:48.39, start: 0.000000, bitrate: 4489 kb/s
  Stream #1:0[0x1](und): Video: h264 (High) (avc1 / 0x31637661), yuv420p(progressive), 1920x1080 [SAR 1:1 DAR 16:9], 4291 kb/s, 23.98 fps, 23.98 tbr, 90k tbn (default)
      Metadata:
        handler_name    : VideoHandler
        vendor_id       : [0][0][0][0]
  Stream #1:1[0x2](eng): Audio: aac (LC) (mp4a / 0x6134706D), 48000 Hz, stereo, fltp, 191 kb/s (default)
      Metadata:
        handler_name    : SoundHandler
        vendor_id       : [0][0][0][0]
Stream mapping:
  Stream #0:0 (hevc) -> settb:default
  Stream #1:0 (h264) -> settb:default
  ssim:default -> Stream #0:0 (wrapped_avframe)
  Stream #0:1 -> #0:1 (aac (native) -> pcm_s16le (native))
Output #0, null, to 'pipe:':
  Metadata:
    COMPATIBLE_BRANDS: isomiso2avc1mp41
    MAJOR_BRAND     : isom
    MINOR_VERSION   : 512
    encoder         : Lavf61.7.100
  Stream #0:0: Video: wrapped_avframe, yuv420p10le(tv, bt709, progressive), 1920x1080 [SAR 1:1 DAR 16:9], q=2-31, 200 kb/s, 23.98 fps, 23.98 tbn
      Metadata:
        encoder         : Lavc61.19.100 wrapped_avframe
  Stream #0:1(eng): Audio: pcm_s16le, 48000 Hz, stereo, s16, 1536 kb/s (default)
      Metadata:
        HANDLER_NAME    : SoundHandler
        VENDOR_ID       : [0][0][0][0]
        _STATISTICS_TAGS: BPS DURATION NUMBER_OF_FRAMES NUMBER_OF_BYTES
        BPS             : 182087
        DURATION        : 00:24:48.365000000
        NUMBER_OF_FRAMES: 69768
        NUMBER_OF_BYTES : 33876538
        _STATISTICS_WRITING_APP: mkvpropedit v66.0.0 ('Josie') 64-bit
        _STATISTICS_WRITING_DATE_UTC: 2025-05-29 08:55:12
        encoder         : Lavc61.19.100 pcm_s16le
frame=  112 fps=0.0 q=-0.0 size=N/A time=00:00:04.67 bitrate=N/A speed=9.06x    frame=  266 fps=260 q=-0.0 size=N/A time=00:00:11.09 bitrate=N/A speed=10.8x    frame=  446 fps=291 q=-0.0 size=N/A time=00:00:18.60 bitrate=N/A speed=12.1x    frame=  703 fps=341 q=-0.0 size=N/A time=00:00:29.32 bitrate=N/A speed=14.2x    frame=  948 fps=369 q=-0.0 size=N/A time=00:00:39.53 bitrate=N/A speed=15.4x    frame= 1146 fps=371 q=-0.0 size=N/A time=00:00:47.79 bitrate=N/A speed=15.5x    frame= 1354 fps=376 q=-0.0 size=N/A time=00:00:56.47 bitrate=N/A speed=15.7x    frame= 1537 fps=373 q=-0.0 size=N/A time=00:01:04.10 bitrate=N/A speed=15.5x    frame= 1745 fps=377 q=-0.0 size=N/A time=00:01:12.78 bitrate=N/A speed=15.7x    frame= 1972 fps=383 q=-0.0 size=N/A time=00:01:22.24 bitrate=N/A speed=  16x    frame= 2192 fps=387 q=-0.0 size=N/A time=00:01:31.42 bitrate=N/A speed=16.1x    frame= 2404 fps=389 q=-0.0 size=N/A time=00:01:40.26 bitrate=N/A speed=16.2x    frame= 2578 fps=385 q=-0.0 size=N/A time=00:01:47.52 bitrate=N/A speed=  16x    frame= 2733 fps=379 q=-0.0 size=N/A time=00:01:53.98 bitrate=N/A speed=15.8x    frame= 2924 fps=378 q=-0.0 size=N/A time=00:02:01.95 bitrate=N/A speed=15.8x    frame= 3092 fps=375 q=-0.0 size=N/A time=00:02:08.96 bitrate=N/A speed=15.6x    frame= 3255 fps=372 q=-0.0 size=N/A time=00:02:15.76 bitrate=N/A speed=15.5x    frame= 3420 fps=369 q=-0.0 size=N/A time=00:02:22.64 bitrate=N/A speed=15.4x    frame= 3584 fps=366 q=-0.0 size=N/A time=00:02:29.48 bitrate=N/A speed=15.3x    frame= 3731 fps=362 q=-0.0 size=N/A time=00:02:35.61 bitrate=N/A speed=15.1x    frame= 3900 fps=360 q=-0.0 size=N/A time=00:02:42.66 bitrate=N/A speed=  15x    frame= 4007 fps=354 q=-0.0 size=N/A time=00:02:47.12 bitrate=N/A speed=14.8x    frame= 4173 fps=352 q=-0.0 size=N/A time=00:02:54.04 bitrate=N/A speed=14.7x    frame= 4329 fps=350 q=-0.0 size=N/A time=00:03:00.55 bitrate=N/A speed=14.6x    frame= 4551 fps=353 q=-0.0 size=N/A time=00:03:09.81 bitrate=N/A speed=14.7x    frame= 4791 fps=358 q=-0.0 size=N/A time=00:03:19.82 bitrate=N/A speed=14.9x    frame= 4980 fps=358 q=-0.0 size=N/A time=00:03:27.70 bitrate=N/A speed=14.9x    frame= 5186 fps=359 q=-0.0 size=N/A time=00:03:36.29 bitrate=N/A speed=  15x    frame= 5416 fps=362 q=-0.0 size=N/A time=00:03:45.89 bitrate=N/A speed=15.1x    frame= 5626 fps=364 q=-0.0 size=N/A time=00:03:54.65 bitrate=N/A speed=15.2x    frame= 5859 fps=367 q=-0.0 size=N/A time=00:04:04.36 bitrate=N/A speed=15.3x    frame= 6079 fps=369 q=-0.0 size=N/A time=00:04:13.54 bitrate=N/A speed=15.4x    frame= 6287 fps=370 q=-0.0 size=N/A time=00:04:22.22 bitrate=N/A speed=15.4x    frame= 6511 fps=372 q=-0.0 size=N/A time=00:04:31.56 bitrate=N/A speed=15.5x    frame= 6746 fps=374 q=-0.0 size=N/A time=00:04:41.36 bitrate=N/A speed=15.6x    frame= 6980 fps=376 q=-0.0 size=N/A time=00:04:51.12 bitrate=N/A speed=15.7x    frame= 7226 fps=379 q=-0.0 size=N/A time=00:05:01.38 bitrate=N/A speed=15.8x    frame= 7384 fps=377 q=-0.0 size=N/A time=00:05:07.97 bitrate=N/A speed=15.7x    frame= 7614 fps=379 q=-0.0 size=N/A time=00:05:17.56 bitrate=N/A speed=15.8x    frame= 7844 fps=381 q=-0.0 size=N/A time=00:05:27.16 bitrate=N/A speed=15.9x    frame= 8044 fps=381 q=-0.0 size=N/A time=00:05:35.50 bitrate=N/A speed=15.9x    frame= 8261 fps=382 q=-0.0 size=N/A time=00:05:44.55 bitrate=N/A speed=15.9x    frame= 8511 fps=384 q=-0.0 size=N/A time=00:05:54.97 bitrate=N/A speed=  16x    frame= 8719 fps=385 q=-0.0 size=N/A time=00:06:03.65 bitrate=N/A speed=  16x    frame= 8934 fps=385 q=-0.0 size=N/A time=00:06:12.62 bitrate=N/A speed=16.1x    frame= 9138 fps=385 q=-0.0 size=N/A time=00:06:21.13 bitrate=N/A speed=16.1x    frame= 9390 fps=388 q=-0.0 size=N/A time=00:06:31.64 bitrate=N/A speed=16.2x    frame= 9646 fps=390 q=-0.0 size=N/A time=00:06:42.31 bitrate=N/A speed=16.3x    frame= 9886 fps=391 q=-0.0 size=N/A time=00:06:52.32 bitrate=N/A speed=16.3x    frame=10143 fps=394 q=-0.0 size=N/A time=00:07:03.04 bitrate=N/A speed=16.4x    frame=10416 fps=396 q=-0.0 size=N/A time=00:07:14.43 bitrate=N/A speed=16.5x    frame=10659 fps=398 q=-0.0 size=N/A time=00:07:24.56 bitrate=N/A speed=16.6x    frame=10923 fps=400 q=-0.0 size=N/A time=00:07:35.58 bitrate=N/A speed=16.7x    frame=11158 fps=401 q=-0.0 size=N/A time=00:07:45.38 bitrate=N/A speed=16.7x    frame=11421 fps=403 q=-0.0 size=N/A time=00:07:56.35 bitrate=N/A speed=16.8x    frame=11659 fps=404 q=-0.0 size=N/A time=00:08:06.27 bitrate=N/A speed=16.8x    frame=11888 fps=405 q=-0.0 size=N/A time=00:08:15.82 bitrate=N/A speed=16.9x    frame=12088 fps=404 q=-0.0 size=N/A time=00:08:24.17 bitrate=N/A speed=16.9x    frame=12301 fps=404 q=-0.0 size=N/A time=00:08:33.05 bitrate=N/A speed=16.9x    frame=12547 fps=406 q=-0.0 size=N/A time=00:08:43.31 bitrate=N/A speed=16.9x    frame=12761 fps=406 q=-0.0 size=N/A time=00:08:52.24 bitrate=N/A speed=16.9x    frame=12977 fps=406 q=-0.0 size=N/A time=00:09:01.24 bitrate=N/A speed=16.9x    frame=13154 fps=405 q=-0.0 size=N/A time=00:09:08.63 bitrate=N/A speed=16.9x    frame=13368 fps=405 q=-0.0 size=N/A time=00:09:17.55 bitrate=N/A speed=16.9x    frame=13630 fps=407 q=-0.0 size=N/A time=00:09:28.48 bitrate=N/A speed=  17x    frame=13895 fps=408 q=-0.0 size=N/A time=00:09:39.53 bitrate=N/A speed=  17x    frame=14148 fps=409 q=-0.0 size=N/A time=00:09:50.08 bitrate=N/A speed=17.1x    frame=14379 fps=410 q=-0.0 size=N/A time=00:09:59.72 bitrate=N/A speed=17.1x    frame=14605 fps=410 q=-0.0 size=N/A time=00:10:09.15 bitrate=N/A speed=17.1x    frame=14829 fps=411 q=-0.0 size=N/A time=00:10:18.49 bitrate=N/A speed=17.1x    frame=15029 fps=410 q=-0.0 size=N/A time=00:10:26.83 bitrate=N/A speed=17.1x    frame=15229 fps=410 q=-0.0 size=N/A time=00:10:35.17 bitrate=N/A speed=17.1x    frame=15437 fps=410 q=-0.0 size=N/A time=00:10:43.85 bitrate=N/A speed=17.1x    frame=15691 fps=411 q=-0.0 size=N/A time=00:10:54.44 bitrate=N/A speed=17.1x    frame=15919 fps=411 q=-0.0 size=N/A time=00:11:03.95 bitrate=N/A speed=17.2x    frame=16133 fps=412 q=-0.0 size=N/A time=00:11:12.88 bitrate=N/A speed=17.2x    frame=16349 fps=412 q=-0.0 size=N/A time=00:11:21.88 bitrate=N/A speed=17.2x    frame=16558 fps=412 q=-0.0 size=N/A time=00:11:30.60 bitrate=N/A speed=17.2x    frame=16730 fps=411 q=-0.0 size=N/A time=00:11:37.78 bitrate=N/A speed=17.1x    frame=16928 fps=410 q=-0.0 size=N/A time=00:11:46.03 bitrate=N/A speed=17.1x    frame=17134 fps=410 q=-0.0 size=N/A time=00:11:54.63 bitrate=N/A speed=17.1x    frame=17377 fps=411 q=-0.0 size=N/A time=00:12:04.76 bitrate=N/A speed=17.1x    frame=17602 fps=411 q=-0.0 size=N/A time=00:12:14.15 bitrate=N/A speed=17.1x    frame=17827 fps=412 q=-0.0 size=N/A time=00:12:23.53 bitrate=N/A speed=17.2x    frame=18058 fps=412 q=-0.0 size=N/A time=00:12:33.16 bitrate=N/A speed=17.2x    frame=18294 fps=413 q=-0.0 size=N/A time=00:12:43.01 bitrate=N/A speed=17.2x    frame=18536 fps=413 q=-0.0 size=N/A time=00:12:53.10 bitrate=N/A speed=17.2x    frame=18763 fps=413 q=-0.0 size=N/A time=00:13:02.57 bitrate=N/A speed=17.2x    frame=18973 fps=413 q=-0.0 size=N/A time=00:13:11.33 bitrate=N/A speed=17.2x    frame=19215 fps=414 q=-0.0 size=N/A time=00:13:21.42 bitrate=N/A speed=17.3x    frame=19425 fps=414 q=-0.0 size=N/A time=00:13:30.18 bitrate=N/A speed=17.3x    frame=19676 fps=415 q=-0.0 size=N/A time=00:13:40.65 bitrate=N/A speed=17.3x    frame=19869 fps=414 q=-0.0 size=N/A time=00:13:48.70 bitrate=N/A speed=17.3x    frame=20087 fps=414 q=-0.0 size=N/A time=00:13:57.79 bitrate=N/A speed=17.3x    frame=20288 fps=414 q=-0.0 size=N/A time=00:14:06.17 bitrate=N/A speed=17.3x    frame=20475 fps=414 q=-0.0 size=N/A time=00:14:13.97 bitrate=N/A speed=17.3x    frame=20657 fps=413 q=-0.0 size=N/A time=00:14:21.56 bitrate=N/A speed=17.2x    frame=20810 fps=412 q=-0.0 size=N/A time=00:14:27.95 bitrate=N/A speed=17.2x    frame=20984 fps=411 q=-0.0 size=N/A time=00:14:35.20 bitrate=N/A speed=17.1x    frame=21136 fps=410 q=-0.0 size=N/A time=00:14:41.54 bitrate=N/A speed=17.1x    frame=21329 fps=410 q=-0.0 size=N/A time=00:14:49.59 bitrate=N/A speed=17.1x    frame=21563 fps=410 q=-0.0 size=N/A time=00:14:59.35 bitrate=N/A speed=17.1x    frame=21808 fps=411 q=-0.0 size=N/A time=00:15:09.57 bitrate=N/A speed=17.1x    frame=22062 fps=411 q=-0.0 size=N/A time=00:15:20.16 bitrate=N/A speed=17.2x    frame=22318 fps=412 q=-0.0 size=N/A time=00:15:30.84 bitrate=N/A speed=17.2x    frame=22550 fps=412 q=-0.0 size=N/A time=00:15:40.52 bitrate=N/A speed=17.2x    frame=22767 fps=413 q=-0.0 size=N/A time=00:15:49.57 bitrate=N/A speed=17.2x    frame=22992 fps=413 q=-0.0 size=N/A time=00:15:58.95 bitrate=N/A speed=17.2x    frame=23199 fps=413 q=-0.0 size=N/A time=00:16:07.59 bitrate=N/A speed=17.2x    frame=23446 fps=413 q=-0.0 size=N/A time=00:16:17.89 bitrate=N/A speed=17.2x    frame=23711 fps=414 q=-0.0 size=N/A time=00:16:28.94 bitrate=N/A speed=17.3x    frame=23939 fps=414 q=-0.0 size=N/A time=00:16:38.45 bitrate=N/A speed=17.3x    frame=24150 fps=414 q=-0.0 size=N/A time=00:16:47.25 bitrate=N/A speed=17.3x    frame=24372 fps=415 q=-0.0 size=N/A time=00:16:56.51 bitrate=N/A speed=17.3x    frame=24588 fps=415 q=-0.0 size=N/A time=00:17:05.52 bitrate=N/A speed=17.3x    frame=24748 fps=414 q=-0.0 size=N/A time=00:17:12.19 bitrate=N/A speed=17.3x    frame=24956 fps=414 q=-0.0 size=N/A time=00:17:20.87 bitrate=N/A speed=17.2x    frame=25167 fps=414 q=-0.0 size=N/A time=00:17:29.67 bitrate=N/A speed=17.3x    frame=25399 fps=414 q=-0.0 size=N/A time=00:17:39.34 bitrate=N/A speed=17.3x    frame=25611 fps=414 q=-0.0 size=N/A time=00:17:48.19 bitrate=N/A speed=17.3x    frame=25850 fps=414 q=-0.0 size=N/A time=00:17:58.16 bitrate=N/A speed=17.3x    frame=26078 fps=415 q=-0.0 size=N/A time=00:18:07.66 bitrate=N/A speed=17.3x    frame=26295 fps=415 q=-0.0 size=N/A time=00:18:16.72 bitrate=N/A speed=17.3x    frame=26536 fps=415 q=-0.0 size=N/A time=00:18:26.77 bitrate=N/A speed=17.3x    frame=26805 fps=416 q=-0.0 size=N/A time=00:18:37.99 bitrate=N/A speed=17.3x    frame=27018 fps=416 q=-0.0 size=N/A time=00:18:46.87 bitrate=N/A speed=17.3x    frame=27238 fps=416 q=-0.0 size=N/A time=00:18:56.05 bitrate=N/A speed=17.3x    frame=27484 fps=416 q=-0.0 size=N/A time=00:19:06.31 bitrate=N/A speed=17.4x    frame=27723 fps=417 q=-0.0 size=N/A time=00:19:16.28 bitrate=N/A speed=17.4x    frame=27968 fps=417 q=-0.0 size=N/A time=00:19:26.49 bitrate=N/A speed=17.4x    frame=28157 fps=417 q=-0.0 size=N/A time=00:19:34.38 bitrate=N/A speed=17.4x    frame=28368 fps=417 q=-0.0 size=N/A time=00:19:43.18 bitrate=N/A speed=17.4x    frame=28511 fps=416 q=-0.0 size=N/A time=00:19:49.14 bitrate=N/A speed=17.3x    frame=28737 fps=416 q=-0.0 size=N/A time=00:19:58.57 bitrate=N/A speed=17.3x    frame=28985 fps=416 q=-0.0 size=N/A time=00:20:08.91 bitrate=N/A speed=17.4x    frame=29201 fps=416 q=-0.0 size=N/A time=00:20:17.92 bitrate=N/A speed=17.4x    frame=29432 fps=417 q=-0.0 size=N/A time=00:20:27.55 bitrate=N/A speed=17.4x    frame=29666 fps=417 q=-0.0 size=N/A time=00:20:37.31 bitrate=N/A speed=17.4x    frame=29916 fps=417 q=-0.0 size=N/A time=00:20:47.74 bitrate=N/A speed=17.4x    frame=30151 fps=418 q=-0.0 size=N/A time=00:20:57.54 bitrate=N/A speed=17.4x    frame=30397 fps=418 q=-0.0 size=N/A time=00:21:07.80 bitrate=N/A speed=17.4x    frame=30640 fps=418 q=-0.0 size=N/A time=00:21:17.94 bitrate=N/A speed=17.5x    frame=30881 fps=419 q=-0.0 size=N/A time=00:21:27.99 bitrate=N/A speed=17.5x    frame=31127 fps=419 q=-0.0 size=N/A time=00:21:38.25 bitrate=N/A speed=17.5x    frame=31363 fps=419 q=-0.0 size=N/A time=00:21:48.09 bitrate=N/A speed=17.5x    frame=31587 fps=420 q=-0.0 size=N/A time=00:21:57.44 bitrate=N/A speed=17.5x    frame=31772 fps=419 q=-0.0 size=N/A time=00:22:05.15 bitrate=N/A speed=17.5x    frame=31926 fps=418 q=-0.0 size=N/A time=00:22:11.58 bitrate=N/A speed=17.4x    frame=32074 fps=417 q=-0.0 size=N/A time=00:22:17.75 bitrate=N/A speed=17.4x    frame=32219 fps=417 q=-0.0 size=N/A time=00:22:23.80 bitrate=N/A speed=17.4x    frame=32362 fps=416 q=-0.0 size=N/A time=00:22:29.76 bitrate=N/A speed=17.3x    frame=32560 fps=415 q=-0.0 size=N/A time=00:22:38.02 bitrate=N/A speed=17.3x    frame=32741 fps=415 q=-0.0 size=N/A time=00:22:45.57 bitrate=N/A speed=17.3x    frame=32887 fps=414 q=-0.0 size=N/A time=00:22:51.66 bitrate=N/A speed=17.3x    frame=33066 fps=414 q=-0.0 size=N/A time=00:22:59.12 bitrate=N/A speed=17.3x    frame=33249 fps=413 q=-0.0 size=N/A time=00:23:06.76 bitrate=N/A speed=17.2x    frame=33465 fps=413 q=-0.0 size=N/A time=00:23:15.76 bitrate=N/A speed=17.2x    frame=33676 fps=413 q=-0.0 size=N/A time=00:23:24.56 bitrate=N/A speed=17.2x    frame=33951 fps=414 q=-0.0 size=N/A time=00:23:36.03 bitrate=N/A speed=17.3x    frame=34225 fps=415 q=-0.0 size=N/A time=00:23:47.46 bitrate=N/A speed=17.3x    frame=34508 fps=416 q=-0.0 size=N/A time=00:23:59.27 bitrate=N/A speed=17.3x    frame=34785 fps=416 q=-0.0 size=N/A time=00:24:10.82 bitrate=N/A speed=17.4x    frame=35064 fps=417 q=-0.0 size=N/A time=00:24:22.46 bitrate=N/A speed=17.4x    frame=35334 fps=418 q=-0.0 size=N/A time=00:24:33.72 bitrate=N/A speed=17.4x    frame=35608 fps=418 q=-0.0 size=N/A time=00:24:45.15 bitrate=N/A speed=17.5x    [Parsed_ssim_10 @ 00000226c211e300] SSIM Y:0.994835 (22.869557) U:0.994965 (22.979778) V:0.994805 (22.843851) All:0.994852 (22.883421)
[out#0/null @ 00000226b6094540] video:15333KiB audio:279072KiB subtitle:0KiB other streams:0KiB global headers:0KiB muxing overhead: unknown
frame=35684 fps=419 q=-0.0 Lsize=N/A time=00:24:48.32 bitrate=N/A speed=17.5x    
